<?xml version="1.0" encoding="UTF-8" standalone="no"?>
<!-- Created with Inkscape (http://www.inkscape.org/) -->

<svg
   xmlns:dc="http://purl.org/dc/elements/1.1/"
   xmlns:cc="http://creativecommons.org/ns#"
   xmlns:rdf="http://www.w3.org/1999/02/22-rdf-syntax-ns#"
   xmlns:svg="http://www.w3.org/2000/svg"
   xmlns="http://www.w3.org/2000/svg"
   xmlns:sodipodi="http://sodipodi.sourceforge.net/DTD/sodipodi-0.dtd"
   xmlns:inkscape="http://www.inkscape.org/namespaces/inkscape"
   width="1279.9999"
   height="720.00043"
   viewBox="0 0 338.66663 190.50012"
   version="1.1"
   id="svg2420"
   inkscape:version="0.92.2 (5c3e80d, 2017-08-06)"
   sodipodi:docname="new_design_opt.svg">
  <defs
     id="defs2414">
    <filter
       style="color-interpolation-filters:sRGB;"
       inkscape:label="Blur"
       id="filter3010">
      <feGaussianBlur
         stdDeviation="2 2"
         result="blur"
         id="feGaussianBlur3008" />
    </filter>
    <filter
       style="color-interpolation-filters:sRGB;"
       inkscape:label="Drop Shadow"
       id="filter3087">
      <feFlood
         flood-opacity="0.498039"
         flood-color="rgb(0,0,0)"
         result="flood"
         id="feFlood3077" />
      <feComposite
         in="flood"
         in2="SourceGraphic"
         operator="in"
         result="composite1"
         id="feComposite3079" />
      <feGaussianBlur
         in="composite1"
         stdDeviation="1"
         result="blur"
         id="feGaussianBlur3081" />
      <feOffset
         dx="0.5"
         dy="0.5"
         result="offset"
         id="feOffset3083" />
      <feComposite
         in="SourceGraphic"
         in2="offset"
         operator="over"
         result="composite2"
         id="feComposite3085" />
    </filter>
    <filter
       style="color-interpolation-filters:sRGB"
       id="filter3087-4">
      <feFlood
         id="feFlood3927"
         flood-color="rgb(0,0,0)"
         flood-opacity=".49804"
         result="flood" />
      <feComposite
         id="feComposite3929"
         in="flood"
         in2="SourceGraphic"
         result="composite1"
         operator="in" />
      <feGaussianBlur
         id="feGaussianBlur3931"
         in="composite1"
         result="blur"
         stdDeviation="1" />
      <feOffset
         id="feOffset3933"
         dy="0.5"
         dx="0.5"
         result="offset" />
      <feComposite
         id="feComposite3935"
         in="SourceGraphic"
         in2="offset"
         result="composite2"
         operator="over" />
    </filter>
    <filter
       style="color-interpolation-filters:sRGB;"
       inkscape:label="Drop Shadow"
       id="filter1151">
      <feFlood
         flood-opacity="0.498039"
         flood-color="rgb(0,0,0)"
         result="flood"
         id="feFlood1141" />
      <feComposite
         in="flood"
         in2="SourceGraphic"
         operator="in"
         result="composite1"
         id="feComposite1143" />
      <feGaussianBlur
         in="composite1"
         stdDeviation="0.2"
         result="blur"
         id="feGaussianBlur1145" />
      <feOffset
         dx="0.3"
         dy="0.3"
         result="offset"
         id="feOffset1147" />
      <feComposite
         in="SourceGraphic"
         in2="offset"
         operator="over"
         result="composite2"
         id="feComposite1149" />
    </filter>
  </defs>
  <sodipodi:namedview
     id="base"
     pagecolor="#ffffff"
     bordercolor="#666666"
     borderopacity="1.0"
     inkscape:pageopacity="0.0"
     inkscape:pageshadow="2"
     inkscape:zoom="0.70710678"
     inkscape:cx="584.48393"
     inkscape:cy="346.96518"
     inkscape:document-units="mm"
     inkscape:current-layer="g2976"
     showgrid="false"
     units="px"
     fit-margin-top="0"
     fit-margin-left="0"
     fit-margin-right="0"
     fit-margin-bottom="0"
     inkscape:window-width="1920"
     inkscape:window-height="1019"
     inkscape:window-x="0"
     inkscape:window-y="27"
     inkscape:window-maximized="1" />
  <metadata
     id="metadata2417">
    <rdf:RDF>
      <cc:Work
         rdf:about="">
        <dc:format>image/svg+xml</dc:format>
        <dc:type
           rdf:resource="http://purl.org/dc/dcmitype/StillImage" />
        <dc:title />
      </cc:Work>
    </rdf:RDF>
  </metadata>
  <g
     inkscape:label="Layer 1"
     inkscape:groupmode="layer"
     id="layer1"
     transform="translate(-12.984763,-115.21771)">
    <g
       id="g2976"
       transform="translate(-147.80005,-36.081386)">
      <path
         style="fill:#d9d9d9;stroke-width:0.50477821;filter:url(#filter3010)"
         d="m 206.10265,341.40982 c -2.7642,-0.74511 -1.9278,-1.40602 1.81834,-1.43683 2.94395,-0.0243 3.34349,-0.12253 2.48926,-0.61306 -0.55964,-0.32131 -1.60529,-1.19114 -2.32367,-1.93297 -0.71838,-0.7418 -1.59325,-1.34872 -1.94416,-1.34872 -0.35093,0 -1.79447,-0.23412 -3.20785,-0.52028 -2.45324,-0.49668 -2.55291,-0.58 -2.19695,-1.83649 0.29655,-1.0468 0.7907,-1.39115 2.41438,-1.68246 3.25002,-0.58311 21.97484,-0.87605 22.31976,-0.34919 0.16729,0.25566 1.59825,0.46482 3.1797,0.46482 2.44143,0 2.9165,-0.14848 3.14794,-0.98396 0.2641,-0.95345 0.64025,-0.98007 12.13123,-0.85828 8.85755,0.0938 12.02161,-0.0274 12.50245,-0.47921 0.87033,-0.81779 0.15512,-1.40532 -0.79978,-0.65709 -0.91718,0.71859 -2.59628,0.0222 -3.41079,-1.41449 -0.77473,-1.36654 -0.67101,-1.54411 0.71071,-1.21673 1.51603,0.35922 2.12223,-0.40568 1.30297,-1.64409 -0.49117,-0.74251 -0.42282,-1.12127 0.35762,-1.98175 0.5307,-0.58509 1.29984,-1.06382 1.70922,-1.06382 0.60403,0 0.58226,0.16906 -0.11549,0.89692 -1.40181,1.46227 -1.02585,2.41949 1.34818,3.43237 1.21439,0.51814 3.01664,1.74524 4.00502,2.72691 1.79038,1.77825 1.79323,1.78844 0.7694,2.75499 -0.58675,0.55389 -2.36079,1.20182 -4.1349,1.51016 -5.43678,0.94493 -5.59641,2.37196 -0.37079,3.31467 3.5307,0.63692 13.33901,1.70772 15.18718,1.65803 3.23665,-0.0869 15.28791,-1.05815 16.65897,-1.34243 2.21328,-0.45891 1.86805,-1.21904 -0.55367,-1.21904 -1.3919,0 -2.0781,-0.21731 -2.0781,-0.65806 0,-0.83864 2.91581,-1.65695 7.44511,-2.08939 2.99325,-0.28578 3.87919,-0.59953 5.66078,-2.00468 2.94872,-2.3257 3.18268,-2.39442 8.71421,-2.55947 2.71454,-0.081 5.14567,-0.26798 5.40253,-0.41553 0.25686,-0.14755 5.45904,-0.34245 11.56041,-0.43317 8.3637,-0.12438 11.55211,-0.34588 12.95777,-0.9003 1.31402,-0.51833 2.14716,-0.59254 2.82229,-0.25146 1.21131,0.61199 3.46855,0.62749 3.86199,0.0265 0.16475,-0.25159 1.6397,-0.69351 3.27773,-0.98205 1.638,-0.28851 4.5054,-0.99599 6.37196,-1.57212 3.24661,-1.00212 3.46788,-1.01132 5.10434,-0.21245 0.94084,0.45929 3.38803,0.94957 5.43821,1.08951 5.37559,0.36692 5.4711,0.42862 3.55363,2.29622 -0.90442,0.8809 -1.64438,1.75665 -1.64438,1.94611 0,0.61607 1.818,0.36359 2.99739,-0.41624 1.77362,-1.17275 10.35147,-3.64363 14.40674,-4.14991 2.00018,-0.24971 5.62541,-0.46082 8.05609,-0.46916 2.43068,-0.008 5.12366,-0.20581 5.98445,-0.43888 0.86076,-0.23304 2.96331,-0.24206 4.6723,-0.02 1.8447,0.23967 3.87829,0.21012 5.00484,-0.0728 1.31402,-0.32992 2.35255,-0.3041 3.37693,0.084 1.63615,0.61983 9.58189,0.63826 14.53798,0.0337 3.2835,-0.40053 7.41173,0.27675 12.59334,2.06605 1.25032,0.43176 3.01749,0.785 3.92703,0.785 0.90955,0 2.10753,0.32405 2.6622,0.72009 0.55465,0.39603 1.75446,0.72709 2.66626,0.73567 1.74741,0.0167 2.68048,0.77556 1.881,1.5303 -0.26121,0.24659 -2.80081,0.91319 -5.64353,1.48129 -5.5999,1.11916 -7.23362,1.74034 -8.75719,3.32964 -0.54364,0.56711 -1.6187,1.03109 -2.38899,1.03109 -1.78566,0 -4.71023,0.91368 -5.68952,1.77751 -1.25487,1.10687 0.0261,1.71187 4.99481,2.35888 l 4.59416,0.59825 -2.07813,0.94322 c -2.0292,0.92101 -4.73083,0.94493 -114.81528,1.01648 -68.02183,0.0441 -113.40691,-0.10727 -114.42567,-0.38186 z m 70.89032,-4.66039 c -0.18045,-0.17035 -0.0943,-0.72209 0.19145,-1.22613 0.63148,-1.1139 3.19573,-1.23166 4.1125,-0.18886 0.53061,0.60356 0.4029,0.8125 -0.74951,1.22613 -1.57725,0.5661 -3.07077,0.64546 -3.55446,0.18886 z m -35.69241,-28.13632 c -0.31505,-0.55574 -1.0878,-0.9809 -1.7828,-0.9809 -2.60863,0 -6.09869,-5.30904 -6.27041,-9.53847 -0.0568,-1.39867 -0.36691,-2.51142 -0.73197,-2.62629 -0.34839,-0.10955 -0.87316,-0.78312 -1.16614,-1.49663 -0.6113,-1.48873 -1.50364,-11.02442 -1.77848,-19.00471 -0.1031,-2.99542 -0.41622,-6.01398 -0.69571,-6.70793 -0.27948,-0.69394 -1.88658,-2.1454 -3.57131,-3.22543 -2.29672,-1.47239 -3.60347,-2.80792 -5.22251,-5.33758 -1.18764,-1.85559 -2.15936,-3.60608 -2.15936,-3.88995 0,-0.28389 -0.7099,-1.35944 -1.57758,-2.39015 -0.99276,-1.17932 -1.4475,-2.15882 -1.22669,-2.64231 0.19302,-0.42254 0.39978,-1.71163 0.45955,-2.86464 0.0776,-1.4947 0.6159,-2.76151 1.87611,-4.41404 1.56396,-2.05083 1.75446,-2.63412 1.65479,-5.06645 -0.10229,-2.49556 0.006,-2.79953 1.16893,-3.3 0.70486,-0.30319 1.28157,-0.77159 1.28157,-1.04091 0,-1.42786 6.60798,-3.10092 8.00885,-2.02772 0.30983,0.23736 2.1342,0.65975 4.05415,0.93866 3.21054,0.46639 3.69581,0.7037 6.04381,2.95556 2.11761,2.0309 2.97774,2.50859 5.04379,2.80107 2.92564,0.41418 4.7144,1.95103 5.21752,4.4828 0.18536,0.93281 0.71665,1.82726 1.1806,1.98769 0.46397,0.16053 1.03053,0.58422 1.25903,0.94175 0.2285,0.35752 1.06897,0.65005 1.86771,0.65005 0.79873,0 1.8754,0.44139 2.39258,0.98088 0.64482,0.67266 1.6001,0.98091 3.03987,0.98091 1.32881,0 2.77729,0.42126 3.94581,1.14758 1.01542,0.63116 2.48916,1.51907 3.27496,1.9731 1.98063,1.14443 1.82124,2.4898 -0.73496,6.20355 -1.84828,2.68523 -2.1846,3.57833 -2.30729,6.12701 -0.0789,1.64097 -0.57019,4.0682 -1.09159,5.39383 -0.854,2.17138 -1.19465,2.49357 -3.43715,3.25097 -4.14427,1.39972 -5.02753,2.15257 -5.02753,4.28528 0,1.2516 -0.34528,2.16944 -1.03906,2.76217 -0.57147,0.48824 -1.04919,1.23973 -1.06158,1.66997 -0.0118,0.43025 -0.56501,1.66508 -1.22803,2.74407 -1.07717,1.75296 -1.40876,1.95566 -3.11499,1.90414 -1.0502,-0.0317 -1.83436,0.0786 -1.74256,0.24524 1.51745,2.75357 1.57447,2.98342 0.9239,3.72343 -0.3637,0.41369 -1.39166,0.93668 -2.28437,1.16222 -1.27489,0.32208 -1.59475,0.64705 -1.49085,1.5147 0.0915,0.76361 -0.19746,1.18607 -0.93562,1.3683 -0.87899,0.21699 -1.00863,0.51836 -0.73286,1.70363 0.18418,0.79202 0.0485,2.09317 -0.30184,2.8915 -0.54669,1.24595 -0.50515,1.58884 0.29337,2.42182 0.77349,0.80684 0.8288,1.18057 0.32829,2.2176 -0.94578,1.9596 -0.76114,4.02994 0.39018,4.37491 0.54568,0.16349 1.27567,0.61977 1.6222,1.01394 0.52502,0.59721 0.40596,0.71668 -0.71411,0.71668 -0.81243,0 -1.56411,-0.38801 -1.90022,-0.9809 z m 240.54066,-8.61362 c 0,-0.47127 1.35045,-1.34337 3.5068,-2.26456 1.92875,-0.82399 4.12736,-1.91365 4.88582,-2.4215 1.61851,-1.08369 1.99976,-1.14305 1.99278,-0.31027 -0.006,0.76583 -8.21429,5.76277 -9.46583,5.76277 -0.50575,0 -0.91957,-0.34489 -0.91957,-0.76644 z m -19.53144,-3.34655 c -0.52289,-1.28643 0.18025,-2.26283 1.62956,-2.26283 1.66144,0 1.5837,1.24491 -0.1453,2.32684 -1.0389,0.65011 -1.19675,0.6433 -1.48427,-0.064 z m 32.51961,-3.22667 c 0,-0.26037 0.72989,-1.25818 1.62202,-2.21737 1.28018,-1.37646 1.77286,-1.6258 2.33785,-1.18314 1.11118,0.87059 0.85575,1.5724 -1.0083,2.77037 -1.82011,1.16974 -2.95157,1.41129 -2.95157,0.63014 z m -33.85249,-2.87409 c -0.54084,-0.35747 -0.94597,-0.90924 -0.90024,-1.2261 0.0458,-0.31689 -0.098,-1.31103 -0.31921,-2.20922 -0.33141,-1.34526 -0.59391,-1.58579 -1.48936,-1.36472 -0.77501,0.19131 -1.50899,-0.16776 -2.55697,-1.25091 -1.39514,-1.44203 -1.613,-1.5034 -4.28374,-1.20707 -1.54762,0.17164 -3.99638,0.75221 -5.4417,1.29003 -1.44532,0.53781 -3.17428,0.97783 -3.84213,0.97783 -0.66785,0 -2.21178,0.33225 -3.43095,0.73832 -2.97109,0.98959 -3.97392,0.33357 -2.79105,-1.82585 0.44568,-0.8136 0.67621,-1.95008 0.51229,-2.52552 -0.16396,-0.57541 -0.14648,-2.80222 0.0389,-4.94845 0.4056,-4.69687 1.17938,-5.64227 5.68137,-6.94145 2.49967,-0.72136 3.72694,-1.49988 6.69719,-4.2484 3.5658,-3.2996 3.6789,-3.35933 5.80161,-3.06329 1.88029,0.26222 2.20958,0.16906 2.50457,-0.70832 0.50491,-1.50177 3.15474,-2.62043 5.30503,-2.23962 1.74907,0.30977 1.78707,0.36588 1.46527,2.16397 -0.30938,1.72867 -0.20289,1.92935 1.67599,3.15853 1.10347,0.72193 2.25911,1.31258 2.56806,1.31258 0.87334,0 2.04195,-2.01071 2.39832,-4.12648 0.1779,-1.05571 0.52198,-2.10702 0.76481,-2.33627 0.78575,-0.74178 3.39699,3.59695 3.4468,5.72707 0.0259,1.10913 0.5086,2.6013 1.11051,3.43315 0.58556,0.80924 1.84609,2.95767 2.80116,4.77429 l 1.73652,3.30295 -0.94277,2.33042 c -1.18713,2.93448 -9.21733,10.92686 -10.9786,10.92686 -0.63403,0 -1.28615,0.20375 -1.44918,0.45277 -0.43391,0.66278 -4.93547,0.39111 -6.0825,-0.3671 z m -131.11148,-4.82855 c -0.42072,-0.39718 -0.76493,-1.18509 -0.76493,-1.75094 0,-0.56585 -0.71874,-2.23109 -1.59719,-3.70051 -0.87847,-1.46944 -1.82292,-3.99486 -2.09882,-5.61207 -0.27589,-1.61724 -1.08413,-4.02563 -1.79611,-5.352 -1.62879,-3.03436 -1.71003,-4.96326 -0.33291,-7.90225 0.90152,-1.92395 1.00923,-2.721 0.6291,-4.65442 -0.8627,-4.38789 -1.29922,-5.52262 -2.64279,-6.86992 -1.92702,-1.93236 -2.56679,-3.23246 -2.00397,-4.07228 0.26143,-0.39008 0.47889,-1.50267 0.48327,-2.4724 0.009,-1.9731 -1.24182,-3.38655 -2.99661,-3.38655 -0.60744,0 -1.68888,-0.55177 -2.40324,-1.22613 -1.57542,-1.48723 -2.10951,-1.50768 -5.587,-0.21369 -1.49645,0.55684 -3.13585,0.90999 -3.6431,0.78475 -0.50725,-0.12531 -1.85704,-0.003 -2.99955,0.2701 -1.14253,0.27377 -2.64836,0.36246 -3.34631,0.19708 -1.43209,-0.33932 -5.51208,-3.84055 -5.51208,-4.73018 0,-0.31951 -0.67181,-1.38515 -1.49291,-2.36809 -1.88325,-2.25436 -2.40983,-4.45603 -1.58246,-6.61605 0.48344,-1.26211 0.49851,-2.18497 0.0622,-3.8078 -0.62179,-2.31258 -0.69803,-2.07996 2.37766,-7.25372 1.04887,-1.76436 2.11422,-2.8626 3.19177,-3.29031 1.17124,-0.4649 1.70757,-1.06766 1.94432,-2.1851 0.1968,-0.929 1.26554,-2.39218 2.68553,-3.67669 2.18305,-1.97478 2.51644,-2.11319 4.47865,-1.8593 1.58247,0.20478 2.57893,0.0206 3.92972,-0.72636 1.40127,-0.77487 2.92351,-1.0354 6.74518,-1.1545 l 4.93552,-0.15385 0.1724,1.7146 c 0.20861,2.07554 0.89663,2.94466 2.3311,2.94466 0.59256,0 1.93544,0.56134 2.98416,1.24744 2.5933,1.69657 4.84361,1.83699 5.07257,0.31653 0.25067,-1.66436 1.34291,-1.80894 4.37215,-0.57873 3.86284,1.56874 9.88673,1.51111 11.31708,-0.10826 1.28589,-1.45581 1.42925,-5.29098 0.19782,-5.29098 -0.45538,0 -0.95021,0.44142 -1.09967,0.98091 -0.33478,1.20859 -1.8153,1.32188 -1.602,0.12252 0.12468,-0.70143 -0.24473,-0.86159 -2.02197,-0.87639 -2.64405,-0.0221 -4.16954,-1.18112 -4.63465,-3.52154 -0.40242,-2.02493 -1.43951,-2.52881 -2.80458,-1.36259 -0.73453,0.62753 -0.87381,1.08477 -0.5203,1.7083 0.33122,0.58428 0.24652,1.14195 -0.26999,1.77745 -0.72807,0.89576 -0.78609,0.88596 -1.77481,-0.30009 -1.03459,-1.24105 -1.51085,-2.08806 -2.55647,-4.54649 -0.3178,-0.74722 -1.22256,-1.58999 -2.0106,-1.87282 -0.78802,-0.28286 -2.19576,-1.06365 -3.12832,-1.73513 -1.52659,-1.09922 -1.72956,-1.13711 -2.03725,-0.38017 -0.33314,0.81956 0.81674,2.00465 4.07596,4.20076 0.91924,0.61938 1.06689,0.95602 0.61309,1.39801 -0.73536,0.71624 -4.47155,-1.21355 -6.91238,-3.57038 -1.59578,-1.54083 -1.60058,-1.54187 -3.14955,-0.67807 -0.85326,0.4758 -1.78676,0.72777 -2.07447,0.55991 -0.79008,-0.46097 -2.59192,0.22299 -2.59192,0.98388 0,0.36808 -0.70135,1.14069 -1.55859,1.71692 -0.8572,0.57623 -1.55857,1.33926 -1.55857,1.69562 0,1.24512 -1.93464,2.88779 -4.11779,3.49633 -1.98059,0.55205 -2.38376,0.51149 -4.03015,-0.40553 -1.75335,-0.9766 -1.81357,-1.10237 -1.44872,-3.02531 0.20938,-1.10349 0.40863,-2.55809 0.44282,-3.23246 0.0595,-1.17387 0.22051,-1.23222 3.77784,-1.36924 3.42141,-0.13179 3.74027,-0.23553 4.02587,-1.30976 0.39358,-1.48041 -0.0621,-2.60744 -1.30861,-3.23727 -1.03153,-0.52115 -1.33136,-1.44046 -0.46981,-1.44046 1.2389,0 8.1279,-3.45901 8.71787,-4.37727 0.3738,-0.58185 1.19501,-1.01767 1.91756,-1.01767 1.46081,0 2.10437,-0.7362 2.10437,-2.4073 0,-1.68303 1.188,-1.86584 1.3912,-0.21408 0.13569,1.10219 0.49834,1.42376 1.91122,1.6944 2.33275,0.44684 7.9152,-0.0606 8.12934,-0.739 0.0938,-0.29756 0.315,-1.16051 0.49125,-1.91764 0.26287,-1.1292 0.5168,-1.31777 1.41295,-1.04926 0.98396,0.29482 1.05681,0.18796 0.73329,-1.07565 -0.19755,-0.77162 -0.93075,-1.80761 -1.62933,-2.30215 -1.55693,-1.10225 -1.58687,-1.66201 -0.16533,-3.09045 1.16795,-1.17367 1.0069,-2.80101 -0.23278,-2.35193 -0.39925,0.14458 -1.0183,0.77872 -1.37567,1.40909 -0.35736,0.63038 -1.2085,1.42843 -1.89138,1.77345 -1.32502,0.66943 -1.61209,1.87744 -0.65982,2.77641 0.80163,0.75676 -2.05007,4.74418 -3.5383,4.94745 -0.85847,0.11734 -1.17989,-0.17517 -1.44504,-1.31484 -0.49023,-2.10708 -1.32769,-2.6091 -3.22469,-1.93315 -2.02048,0.71996 -3.28385,0.24852 -3.28385,-1.22545 0,-1.37025 1.12145,-2.37968 3.6367,-3.27345 1.00008,-0.35537 2.99701,-1.71815 4.43759,-3.02839 1.64818,-1.49905 3.6679,-2.74412 5.4477,-3.35824 2.94187,-1.01511 8.14429,-1.30557 9.73388,-0.54346 0.49616,0.23788 2.07105,0.6911 3.49976,1.00713 1.42869,0.31605 2.91712,0.87234 3.30763,1.23619 0.59931,0.5584 0.54022,0.74734 -0.37898,1.21175 -0.59895,0.3026 -1.7014,0.4051 -2.4499,0.22775 -1.141,-0.27036 -1.33088,-0.17313 -1.17515,0.60118 0.237,1.17855 2.34376,1.41566 4.07331,0.45847 0.71435,-0.39535 1.82484,-0.94353 2.46775,-1.21819 0.64291,-0.27465 1.16892,-0.83589 1.16892,-1.24718 0,-0.89164 0.60115,-0.96504 1.43746,-0.17555 0.4619,0.43606 1.09725,0.36323 2.66936,-0.30601 1.24836,-0.53143 2.57807,-0.75628 3.36694,-0.56937 0.7171,0.16998 2.33912,-0.023 3.60452,-0.42848 1.79911,-0.57664 2.89655,-0.63073 5.03361,-0.24814 1.50309,0.26912 2.83484,0.48928 2.95945,0.48928 0.12469,0 -0.24492,-0.56583 -0.82117,-1.25741 -0.57627,-0.69159 -0.91889,-1.5744 -0.76141,-1.96181 0.3757,-0.92426 2.98739,-0.90649 3.80708,0.0259 0.3531,0.40164 0.88052,0.59111 1.17205,0.42102 0.29151,-0.17016 1.31733,-0.35438 2.27957,-0.40953 0.96223,-0.0552 2.17679,-0.46531 2.69905,-0.91146 0.52222,-0.44616 1.46444,-0.81121 2.09382,-0.81121 0.62939,0 1.27792,-0.32865 1.44122,-0.73034 0.36642,-0.90143 4.0238,-1.88462 5.43629,-1.46139 0.60483,0.18129 1.59144,-0.0304 2.36124,-0.50665 0.91139,-0.56372 1.75112,-0.70381 2.70208,-0.45075 0.75888,0.20192 2.6062,0.39629 4.10518,0.43194 3.12453,0.0744 4.30374,0.78192 3.26741,1.96073 -0.58053,0.66033 -0.37637,0.76862 1.60659,0.85222 1.24937,0.0526 3.20673,0.16331 4.34968,0.24598 1.14298,0.0827 3.81343,0.15126 5.93437,0.15238 3.10838,0.002 4.26704,0.22722 5.97454,1.16223 1.77596,0.97253 2.62208,1.12245 5.23546,0.92773 1.93451,-0.14403 3.3553,-0.51724 3.74483,-0.98341 0.50438,-0.60366 1.26476,-0.68316 3.87101,-0.4048 1.78382,0.19053 3.71832,0.5864 4.29889,0.8797 0.58055,0.29333 3.28055,0.72356 6.00001,0.9561 2.71943,0.23253 7.0485,0.60561 9.62016,0.82909 2.57166,0.22346 4.92036,0.22893 5.21933,0.013 0.59614,-0.43224 6.81836,0.26724 9.37926,1.0544 0.88572,0.27225 2.90089,0.69327 4.47814,0.93562 4.76895,0.73271 7.15935,1.48089 7.15935,2.24079 0,0.57222 -0.58843,0.65119 -3.04539,0.40876 -3.47287,-0.34267 -4.47882,0.30684 -2.43411,1.57161 l 1.30748,0.80874 -1.71356,1.09775 c -0.94245,0.60378 -2.72062,1.2253 -3.95145,1.38114 -3.40277,0.43087 -3.67555,1.03854 -1.43745,3.20227 1.71939,1.66228 1.92301,2.12957 1.92301,4.41331 0,1.40479 -0.18261,2.55417 -0.40591,2.55417 -0.22326,0 -1.78509,-1.31573 -3.47075,-2.92382 l -3.06488,-2.92382 0.62544,-2.55783 c 0.72214,-2.95341 0.21402,-3.98551 -1.4726,-2.99115 -0.64432,0.37987 -1.43748,0.4452 -2.19501,0.18073 -1.66643,-0.58173 -2.48492,-0.18054 -2.48492,1.21794 0,1.37131 -1.29578,2.04842 -2.53657,1.32549 -0.46221,-0.26928 -2.31518,-0.387 -4.11777,-0.2616 -3.42509,0.23829 -4.17191,0.74619 -5.01363,3.4097 -0.28741,0.90941 -0.0526,1.2184 1.37459,1.80921 0.94665,0.39188 2.35506,0.83842 3.12981,0.99229 2.21191,0.43932 5.08547,4.33196 5.08547,6.889 0,2.43568 -0.89372,5.12155 -1.73928,5.22707 -0.32924,0.0411 -0.83237,0.12605 -1.11812,0.18865 -0.28574,0.0627 -0.78523,0.13939 -1.10999,0.17054 -0.32472,0.0312 -0.712,0.6635 -0.86058,1.4053 -0.14865,0.74179 -0.42111,1.79092 -0.6056,2.33137 -0.25629,0.75076 0.0379,1.19081 1.24651,1.86483 0.87005,0.48519 1.847,1.34974 2.17099,1.92122 0.48463,0.85487 0.41622,1.16024 -0.38592,1.72289 -0.8719,0.61158 -1.08475,0.54188 -2.01399,-0.6595 -1.37419,-1.77666 -4.94839,-5.09641 -5.48702,-5.09641 -0.23441,0 -0.58156,0.23729 -0.77144,0.52734 -0.22246,0.33977 -0.75979,0.1596 -1.51083,-0.50641 -1.16211,-1.03063 -1.1693,-1.03084 -2.41294,-0.0677 -1.69162,1.31022 -0.84084,2.68489 1.79253,2.89637 2.04028,0.16386 2.34997,0.59781 1.11633,1.56434 -1.13255,0.88732 -0.99574,1.33043 1.19037,3.85553 2.84499,3.2861 3.21128,4.31671 2.42559,6.8247 -0.36138,1.15353 -1.03517,2.64212 -1.4973,3.30795 -0.82903,1.19447 -3.82209,2.68707 -5.38823,2.68707 -0.44267,0 -1.21292,0.34867 -1.71167,0.77476 -0.70098,0.59889 -1.14485,0.65455 -1.95499,0.24523 -1.47285,-0.74412 -2.00832,-0.66846 -3.19453,0.45137 -1.47769,1.39497 -1.30758,2.19638 0.9653,4.54761 3.72962,3.85818 4.0392,5.44197 1.50245,7.68647 -0.92867,0.82167 -1.8363,1.49497 -2.01699,1.49621 -0.18065,0.001 -1.31042,-0.92468 -2.51053,-2.05762 -1.69903,-1.60394 -2.56925,-2.05988 -3.93149,-2.05988 -1.60086,0 -1.83806,-0.20122 -2.79226,-2.36879 -0.94024,-2.13586 -1.17194,-2.33819 -2.35614,-2.05762 -1.09806,0.26019 -1.40281,0.089 -1.8591,-1.04392 -0.30018,-0.74533 -1.1804,-2.07695 -1.95605,-2.95918 -0.77564,-0.88221 -1.76311,-2.08061 -2.19435,-2.66309 -0.71734,-0.96891 -0.91627,-1.00318 -2.33785,-0.40266 -0.8546,0.361 -3.39155,2.39856 -5.63766,4.52796 l -4.08386,3.87159 -0.109,3.18863 c -0.0917,2.68405 -0.30198,3.33615 -1.32857,4.1209 -0.99251,0.7587 -1.33626,0.8139 -1.84636,0.29649 -1.04829,-1.06326 -5.43713,-10.78694 -5.77856,-12.80262 -0.266,-1.5703 -0.49157,-1.84692 -1.33614,-1.63843 -1.32191,0.32634 -2.4745,-0.10673 -2.4745,-0.92976 0,-0.35878 -0.85484,-1.41368 -1.89963,-2.34421 -1.87151,-1.66684 -1.96814,-1.69198 -6.52333,-1.69644 -3.50911,-0.003 -4.8457,-0.19419 -5.54452,-0.79124 -0.50646,-0.43268 -1.6846,-0.7867 -2.6181,-0.7867 -2.0047,0 -4.59506,-1.32286 -5.0106,-2.55887 -0.43605,-1.29695 -2.19387,-2.05999 -3.10361,-1.34724 -0.92272,0.72293 -0.54784,1.37425 2.77331,4.81826 l 2.53492,2.62874 1.60569,-0.78385 c 1.54352,-0.75352 1.68761,-0.73324 3.72123,0.52369 1.2642,0.78138 2.11554,1.68817 2.11554,2.25338 0,1.37694 -3.04527,4.78702 -4.9436,5.5358 -0.89826,0.3543 -1.96525,1.02197 -2.37112,1.48369 -0.87273,0.99282 -6.90427,3.63122 -8.30122,3.63122 -1.10325,0 -2.03139,-1.35183 -2.08244,-3.03307 -0.0197,-0.62466 -0.84054,-2.12891 -1.82573,-3.34277 -0.98517,-1.21385 -2.16284,-2.97201 -2.61706,-3.90702 -1.29364,-2.66307 -5.40631,-7.86374 -6.21861,-7.86374 -1.11464,0 -0.91719,0.72847 1.37549,5.07481 1.16005,2.19916 2.73811,5.19455 3.50681,6.6564 0.76869,1.46185 2.15833,3.3865 3.08807,4.27695 0.92976,0.89049 2.12116,2.34285 2.64757,3.22748 0.84129,1.41376 1.20261,1.60053 2.98528,1.5432 1.11549,-0.036 3.02176,-0.23047 4.23616,-0.43243 2.85043,-0.474 2.86418,0.023 0.14197,5.13409 -1.33212,2.50117 -2.73603,4.3615 -3.95248,5.23739 -1.0376,0.74711 -3.14714,2.76116 -4.68789,4.47567 -2.71164,3.01742 -2.80136,3.21166 -2.80136,6.06429 0,1.62086 0.20686,3.31874 0.45971,3.77305 0.25283,0.45434 0.62499,1.98145 0.82697,3.39362 0.35398,2.47463 0.30444,2.6209 -1.36888,4.04114 -3.951,3.35344 -5.64779,5.19964 -5.42051,5.89774 0.13176,0.40462 0.3933,1.21184 0.58127,1.79383 0.23946,0.74142 0.0158,1.32868 -0.74533,1.96181 -0.59788,0.49698 -1.5666,1.30114 -2.15271,1.78698 -0.62734,0.52006 -0.94935,1.22923 -0.78291,1.72425 0.17947,0.53364 -0.5309,1.77718 -1.94405,3.40349 -3.04232,3.50122 -5.47423,5.14749 -7.1493,4.83965 -0.73185,-0.13458 -2.19947,-0.0595 -3.2614,0.16646 -1.45665,0.31013 -2.11858,0.23376 -2.69568,-0.31103 z m 18.45754,-27.10735 c 0,-0.25382 -0.23378,-0.59789 -0.51952,-0.76461 -0.28574,-0.16665 -0.51953,0.041 -0.51953,0.4615 0,0.42054 0.23379,0.76462 0.51953,0.76462 0.28574,0 0.51952,-0.20768 0.51952,-0.46151 z m -0.74647,-11.04246 c 1.35437,-1.95135 -0.31013,-3.12285 -2.07278,-1.45886 -0.61548,0.58102 -0.68377,1.00186 -0.27859,1.71657 0.71558,1.26224 1.34424,1.19331 2.35137,-0.25771 z m 19.66539,-46.19286 c 0.17986,-0.44264 -0.0357,-1.32769 -0.47939,-1.9668 -0.58444,-0.84204 -0.66425,-1.41297 -0.28982,-2.07343 0.60933,-1.07485 0.34235,-1.39266 -1.92181,-2.2876 -2.09494,-0.82806 -2.70894,-2.09345 -1.44063,-2.96895 1.15398,-0.79659 0.68976,-2.15967 -0.73556,-2.15967 -0.57593,0 -1.78289,0.6206 -2.68212,1.3791 l -1.63498,1.3791 1.34595,2.01282 c 0.74029,1.10705 1.60292,2.16273 1.91698,2.34596 0.31402,0.18315 0.44082,0.91907 0.28173,1.63518 -0.15905,0.71613 -0.11434,1.54161 0.0995,1.8344 1.2063,1.65203 4.98133,2.24476 5.54019,0.86989 z m -25.35171,-4.8803 c 1.51725,-0.48628 3.13998,-0.66409 4.30423,-0.47162 4.59365,0.75941 5.88727,0.84275 6.34685,0.4089 0.83123,-0.78471 -0.0927,-2.09421 -2.19056,-3.10453 -1.80327,-0.86849 -1.96976,-1.10756 -1.69025,-2.42692 0.30798,-1.45377 0.29922,-1.45996 -1.31253,-0.92954 -1.05017,0.3456 -1.62257,0.86309 -1.62257,1.46688 0,1.22264 -1.13539,1.19482 -1.95753,-0.048 -0.85706,-1.29555 -1.75376,-1.23742 -3.42163,0.22181 -1.09829,0.96088 -1.3747,1.65116 -1.3747,3.43312 0,1.22675 0.10878,2.23045 0.24162,2.23045 0.13293,0 1.33757,-0.35126 2.67707,-0.78058 z m -5.51631,-21.28961 c 0,-0.26974 -0.24758,-0.49044 -0.55019,-0.49044 -0.3026,0 -0.40568,0.2207 -0.2291,0.49044 0.17652,0.26974 0.42418,0.49046 0.55019,0.49046 0.12605,0 0.2291,-0.22072 0.2291,-0.49046 z m 38.16139,-7.72027 c 0.22994,-0.56569 -0.0393,-1.14933 -0.7973,-1.72884 -1.39713,-1.06799 -1.45955,-1.0137 -1.13647,0.98887 0.27661,1.71459 1.36786,2.13216 1.93377,0.73997 z m -15.95163,107.73254 c -1.12558,-0.6189 -1.20697,-3.23034 -0.16003,-5.13536 0.41203,-0.74973 0.62274,-1.95978 0.46825,-2.68897 -0.17122,-0.8082 -0.008,-1.53289 0.41979,-1.85622 0.38537,-0.29169 1.66416,-1.31389 2.84175,-2.27155 2.89588,-2.35504 3.53849,-2.28375 3.09428,0.34323 -0.56388,3.33443 -3.38126,10.85606 -4.31715,11.52553 -1.01748,0.72784 -1.16519,0.73309 -2.34689,0.0834 z m 118.72178,-18.843 c -1.79768,-1.91688 -2.87,-2.14597 -3.87704,-0.82825 -1.10173,1.44163 -1.97338,1.71838 -2.91958,0.92693 -0.48203,-0.40321 -1.344,-0.81906 -1.91548,-0.92412 -0.63712,-0.11715 -0.98051,-0.514 -0.88774,-1.02596 0.27515,-1.51847 -0.87306,-2.68982 -3.51629,-3.58711 -1.43527,-0.48723 -2.60958,-1.10077 -2.60958,-1.36342 0,-0.26267 -0.37357,-0.86726 -0.83018,-1.34355 -0.4566,-0.4763 -0.67658,-1.10062 -0.48886,-1.38736 0.65278,-0.99711 1.89598,-0.51228 2.43593,0.94998 0.59459,1.61015 1.97649,1.94464 3.03933,0.73568 0.8974,-1.02079 1.48942,-0.94555 6.09091,0.774 4.44593,1.66142 6.37772,3.04278 6.37772,4.56046 0,0.54708 0.74722,1.72247 1.66049,2.61198 l 1.66049,1.61731 h -1.30513 c -0.8386,0 -1.8806,-0.6136 -2.91499,-1.71657 z m -43.97136,-1.5084 c -2.87283,-0.73946 -3.16487,-0.91775 -2.69039,-1.64249 0.23136,-0.35342 0.91423,-0.29205 2.14285,0.19257 0.99181,0.39121 2.15244,0.58481 2.57918,0.43022 0.89666,-0.32483 3.87439,0.72156 3.87439,1.36147 0,0.60076 -2.89516,0.43323 -5.90603,-0.34177 z m -6.44908,-4.26779 c -1.2054,-1.15947 -2.19264,-2.32046 -2.19385,-2.58 -0.003,-0.62672 -2.54531,-4.21914 -4.30636,-6.08499 -0.77341,-0.81944 -1.4062,-1.71252 -1.4062,-1.98461 0,-1.06778 1.96303,-0.40825 3.63668,1.22189 2.25568,2.19701 3.48418,2.33785 2.3512,0.26958 -0.43594,-0.79586 -0.79263,-1.77208 -0.79263,-2.16939 0,-0.39733 -0.58445,-1.37812 -1.29882,-2.17958 -1.41739,-1.5902 -1.88767,-4.10403 -0.57542,-3.07591 0.39788,0.31171 0.987,1.16753 1.30919,1.9018 0.32218,0.73429 1.28945,1.77532 2.14949,2.31338 1.53511,0.96042 1.93203,1.71716 2.18525,4.16624 0.0918,0.88959 -0.11364,1.20887 -0.74896,1.16327 -0.73936,-0.053 -0.66939,0.25243 0.44935,1.96178 0.7288,1.11356 1.80715,2.3861 2.39632,2.82787 0.90931,0.68181 0.99726,1.04664 0.58192,2.41381 -0.26912,0.88584 -0.72694,1.6854 -1.01742,1.77679 -0.29047,0.0914 -1.51436,-0.78246 -2.71974,-1.94193 z m 18.91691,-0.40263 c -0.414,-1.9541 0.30232,-3.13391 1.91962,-3.16178 1.1088,-0.0191 1.3191,0.2438 1.56187,1.95241 0.32491,2.28686 0.15237,2.61295 -0.93289,1.76269 -0.6422,-0.50316 -0.84441,-0.47113 -1.10719,0.17536 -0.50108,1.2327 -1.08884,0.93557 -1.44141,-0.72866 z m -7.5178,-0.53238 c -1.99196,-0.42007 -2.37365,-0.72909 -3.27401,-2.65059 -0.99397,-2.1213 -0.94192,-3.14464 0.16003,-3.14464 0.71661,0 5.62512,-3.70063 6.53484,-4.92677 1.4268,-1.92303 3.95483,-0.42088 2.77981,1.65177 -0.42551,0.75061 -0.47064,1.49326 -0.14059,2.31298 0.38325,0.9516 0.16121,1.85684 -1.04762,4.27263 -0.84364,1.68586 -1.80924,3.04158 -2.14577,3.0127 -0.33654,-0.029 -1.62656,-0.26653 -2.86671,-0.52808 z m 12.95857,-12.29368 c -0.32964,-0.84098 -0.19164,-1.26289 0.58007,-1.77333 1.46225,-0.96726 2.34914,-0.0277 1.54552,1.6374 -0.74056,1.53436 -1.55693,1.58657 -2.12559,0.13587 z m -50.66874,-0.20463 c -0.44235,-1.08826 0.53453,-2.0254 1.32926,-1.27517 0.63603,0.60044 0.26763,2.09286 -0.51662,2.09286 -0.26413,0 -0.62983,-0.36797 -0.81264,-0.81769 z M 213.3796,235.322 c -1.64554,-0.85924 -3.24753,-2.29417 -3.26792,-2.92707 -0.0339,-1.05469 -1.89352,-2.63144 -3.4951,-2.96353 -0.89593,-0.18577 -2.51185,-1.0001 -3.59093,-1.80964 -1.55694,-1.16806 -2.29365,-1.41313 -3.56903,-1.18726 -1.18273,0.20946 -2.4895,-0.12475 -4.94875,-1.26544 -4.54143,-2.10662 -5.15995,-2.68669 -5.15995,-4.83914 0,-1.18627 -0.49347,-2.47287 -1.42871,-3.72498 -1.92751,-2.58062 -3.5588,-5.54093 -3.97853,-7.21993 -0.37194,-1.48781 -1.4895,-1.55654 -1.78655,-0.10992 -0.0992,0.48262 0.2297,1.73562 0.7307,2.78442 0.96447,2.01913 0.74346,2.91074 -0.48325,1.94965 -0.69268,-0.54272 -0.98445,-1.5837 -1.70125,-6.06956 -0.16278,-1.01869 -0.74404,-2.14477 -1.29519,-2.50922 -1.90763,-1.26136 -2.78243,-7.42102 -1.22703,-8.63963 0.4286,-0.33581 0.77927,-0.86431 0.77927,-1.17443 0,-0.31014 0.66733,-1.33145 1.48293,-2.26959 2.58756,-2.97628 3.3918,-4.85233 2.6449,-6.16981 -0.51957,-0.91651 -0.51655,-1.29183 0.0158,-1.89677 0.37833,-0.43034 0.6766,-2.1194 0.69468,-3.93398 0.0269,-2.69468 -0.1563,-3.36873 -1.20026,-4.4178 -1.86607,-1.87517 -4.74953,-2.42704 -9.0925,-1.74017 -2.00018,0.31632 -4.57182,1.00324 -5.7148,1.52645 -2.52934,1.1579 -4.04717,1.19932 -5.73305,0.15646 -1.38323,-0.85561 -1.70592,-2.67813 -0.62424,-3.5256 0.36099,-0.28283 1.82216,-0.7831 3.24705,-1.11176 3.303,-0.7618 4.50319,-1.55899 2.88877,-1.91876 -2.03301,-0.45306 -1.39915,-1.2309 1.12786,-1.38402 2.122,-0.12865 2.50949,-0.31687 2.78498,-1.35301 0.20743,-0.78021 0.80236,-1.3037 1.69124,-1.4881 0.75418,-0.15645 2.42329,-0.57702 3.70911,-0.93455 4.0301,-1.12061 7.34571,-1.23899 12.20887,-0.4359 7.1985,1.18871 9.83406,1.33805 12.59212,0.71343 3.0869,-0.69909 10.54319,0.0357 12.47238,1.22885 0.69055,0.42714 1.61695,0.64569 2.0587,0.48566 0.44174,-0.15997 1.11289,-0.0483 1.49145,0.24828 0.50247,0.39368 1.16079,0.37796 2.43864,-0.0582 1.29152,-0.44087 2.69028,-0.46993 5.33571,-0.11084 4.18347,0.56787 6.99147,-0.16071 6.99147,-1.81388 0,-0.52637 0.4522,-1.18551 1.00489,-1.46475 1.3709,-0.69262 1.58998,-0.64493 1.61003,0.35057 0.009,0.47207 0.48395,1.38733 1.05432,2.03394 1.08256,1.22725 1.74196,1.14199 4.23922,-0.54801 0.69764,-0.47211 1.03274,-0.47545 1.52034,-0.0149 0.90401,0.8534 -0.79627,2.47427 -3.00604,2.86563 -1.94133,0.3438 -2.15288,0.74306 -0.90976,1.717 0.7475,0.58564 0.68262,0.69503 -0.6049,1.02008 -1.64274,0.41476 -2.31047,0.16925 -2.31047,-0.84922 0,-0.38871 -0.35069,-0.70672 -0.7793,-0.70672 -0.4286,0 -0.77927,0.21807 -0.77927,0.48464 0,0.26656 -0.94033,0.62661 -2.08963,0.80009 -1.14929,0.1735 -2.20263,0.48806 -2.34074,0.69904 -0.13805,0.21098 -1.27098,0.84966 -2.51747,1.4193 -5.12824,2.3436 -5.0688,4.20398 0.20504,6.41558 3.28327,1.37688 3.36183,1.45304 3.20131,3.10398 -0.0905,0.93086 0.095,1.84394 0.41238,2.02908 0.73134,0.42668 2.06466,-0.60181 2.64352,-2.0391 0.24487,-0.60802 1.38945,-1.66819 2.5435,-2.35595 1.38229,-0.82375 2.09829,-1.60768 2.09829,-2.29729 0,-0.57576 0.85228,-2.02872 1.89394,-3.2288 1.68068,-1.93623 2.07175,-2.14839 3.47273,-1.88387 1.94746,0.3677 3.46527,1.60728 3.46527,2.83008 0,1.32531 1.25827,1.5883 2.85976,0.5977 1.17635,-0.72763 1.45555,-0.75173 1.85236,-0.15997 0.25698,0.38328 0.47082,1.28588 0.47519,2.00578 0.006,0.84808 0.63283,1.8653 1.7829,2.88936 1.76631,1.57278 1.77093,1.58842 0.94824,3.21704 -0.75448,1.49362 -0.7548,1.71247 -0.003,2.50558 0.45276,0.47794 0.90277,1.3104 0.99999,1.8499 0.15807,0.87688 -0.0709,0.96552 -2.15893,0.83583 -3.22393,-0.20025 -3.56042,-0.74009 -1.60937,-2.58195 0.9096,-0.8587 1.54211,-1.66672 1.40556,-1.79563 -0.13647,-0.12883 -1.09319,0.0289 -2.12591,0.35062 -1.0327,0.32174 -3.28,0.64073 -4.99404,0.70887 -1.714,0.068 -3.38626,0.37862 -3.71609,0.69001 -0.45311,0.42788 -0.25701,0.56614 0.80315,0.56614 1.45823,0 1.84673,0.856 0.82592,1.81968 -0.42276,0.3991 -0.19479,0.73351 0.85346,1.252 1.58829,0.78563 1.30897,1.14034 -1.677,2.12967 -1.30443,0.4322 -1.71567,0.41337 -1.91945,-0.0879 -0.36575,-0.89981 -5.58726,1.20503 -5.91787,2.38555 -0.13528,0.48286 -0.97596,1.23399 -1.86831,1.66919 -2.64232,1.28867 -6.55793,4.64739 -6.55793,5.62528 0,0.58551 -1.27061,1.67622 -3.58242,3.07508 -1.97031,1.19227 -3.76987,2.4541 -3.99899,2.80408 -0.22912,0.34997 -0.36242,2.02146 -0.29619,3.71441 0.0968,2.47291 -0.0344,3.0781 -0.66685,3.0781 -0.43296,0 -0.90855,-0.55176 -1.05688,-1.22612 -0.14825,-0.67438 -0.37946,-1.73444 -0.51365,-2.35572 -0.35032,-1.62177 -4.70759,-2.68931 -6.85466,-1.67942 -0.81044,0.3812 -2.40867,0.61419 -3.55163,0.51777 -3.14672,-0.2655 -5.85076,1.7301 -7.09199,5.23393 -2.44369,6.89832 2.35269,11.04932 7.10626,6.1501 2.7803,-2.86548 4.2432,-1.85505 2.35985,1.63001 -1.62228,3.00195 -1.45915,3.42322 1.39244,3.59596 l 2.46775,0.1494 v 2.9427 c 0,3.30997 0.84174,5.14972 2.35613,5.14972 0.56144,0 1.02078,0.22069 1.02078,0.49045 0,0.63682 -1.00098,0.54978 -2.46415,-0.21426 z m 11.29612,-40.05502 c 0,-0.56039 -1.40882,-0.57305 -1.77356,-0.0167 -0.15198,0.23213 -0.14294,0.54798 0.0203,0.7019 0.40541,0.38272 1.7534,-0.14459 1.7534,-0.68596 z m -5.34324,-0.99579 c 1.41156,-2.73011 3.78465,-3.59231 3.78465,-1.37503 0,1.09767 0.89899,1.20727 2.20799,0.26923 1.32465,-0.94928 1.11678,-1.60772 -0.61055,-1.93384 -1.04365,-0.19706 -1.57258,-0.62307 -1.68846,-1.35996 -0.0929,-0.59016 -0.52428,-1.28321 -0.95881,-1.54012 -1.1045,-0.653 -5.18448,0.42993 -5.18448,1.37608 0,0.52943 0.35148,0.64282 1.29766,0.41865 0.7137,-0.16906 1.66852,-0.17314 2.12182,-0.009 0.66691,0.24159 0.42087,0.73113 -1.28909,2.56503 -1.16231,1.24655 -1.97882,2.47185 -1.81447,2.7229 0.46994,0.71783 1.44391,0.20019 2.13374,-1.13403 z m -11.54137,-22.00284 c 0.17652,-0.26974 -0.0434,-0.49044 -0.48887,-0.49044 -0.44548,0 -0.80996,0.2207 -0.80996,0.49044 0,0.26976 0.22,0.49047 0.48888,0.49047 0.26887,0 0.63334,-0.22071 0.80995,-0.49047 z m -0.56201,-3.24039 c 0.45197,-0.16367 0.82177,-0.51012 0.82177,-0.76976 0,-0.68196 -2.21612,-0.27431 -2.47034,0.45441 -0.23293,0.66763 0.36198,0.78144 1.64857,0.31535 z m 242.4015,64.5465 c 0,-0.26975 0.23378,-0.49046 0.51952,-0.49046 0.28574,0 0.51952,0.22071 0.51952,0.49046 0,0.26975 -0.23378,0.49045 -0.51952,0.49045 -0.28574,0 -0.51952,-0.2207 -0.51952,-0.49045 z m -3.4232,-5.14756 c -0.96845,-1.39531 -0.61169,-4.86678 0.46571,-4.53168 0.66663,0.20733 1.40662,5.75565 0.76767,5.75565 -0.21113,0 -0.76615,-0.55079 -1.23338,-1.22397 z m -220.12166,-4.96515 c -0.85367,-0.80589 -0.24975,-1.21736 1.57724,-1.07462 1.07154,0.0838 1.94823,0.37292 1.94823,0.64269 0,0.57705 -2.98444,0.94269 -3.52547,0.43193 z m 206.40049,-0.67717 c 0,-0.26975 0.23378,-0.49045 0.51952,-0.49045 0.28574,0 0.51953,0.2207 0.51953,0.49045 0,0.26974 -0.23379,0.49045 -0.51953,0.49045 -0.28574,0 -0.51952,-0.22071 -0.51952,-0.49045 z m -213.30418,-2.57485 c -2.18101,-1.36082 -2.3869,-1.61653 -1.40773,-1.74823 1.56742,-0.21082 6.19104,2.35315 5.25433,2.91373 -0.99764,0.59707 -1.04448,0.58287 -3.8466,-1.1655 z m 225.11591,-2.13237 c -0.41621,-0.39291 0.12841,-1.66861 0.71248,-1.66861 0.25516,0 0.46395,0.44141 0.46395,0.9809 0,0.95597 -0.55106,1.2781 -1.17643,0.68771 z m 7.76045,-10.72706 c -0.48333,-0.45628 -0.72496,-1.0877 -0.53696,-1.40314 0.86484,-1.45102 2.54356,-2.78175 3.52484,-2.79415 0.59311,-0.008 1.72783,-0.639 2.52161,-1.40332 1.26973,-1.22266 1.37671,-1.55487 0.88986,-2.76372 -0.34704,-0.86171 -0.37051,-1.54662 -0.0628,-1.83702 0.77325,-0.72997 2.04204,1.54922 2.43425,4.37278 0.32837,2.36383 0.27267,2.54502 -0.8781,2.85734 -1.99732,0.54206 -5.85209,2.41323 -6.45502,3.13338 -0.46505,0.55547 -0.70621,0.52828 -1.43758,-0.16219 z m -127.90953,-6.1701 c -0.49367,-0.75404 0.18261,-1.24056 0.84934,-0.61108 0.37311,0.35222 0.38206,0.62657 0.0273,0.83359 -0.29087,0.16979 -0.68533,0.0696 -0.87657,-0.22251 z m 132.2435,-6.4442 c 0.0197,-1.50603 0.75796,-1.88092 2.49136,-1.26325 2.1278,0.7582 1.85806,1.5583 -0.59125,1.75369 -1.31184,0.10476 -1.90559,-0.0485 -1.90011,-0.49044 z m -3.08825,-7.46703 c -0.82159,-0.93456 -0.57573,-1.39512 0.43116,-0.80765 0.38372,0.22388 0.60219,0.67749 0.4855,1.00802 -0.15101,0.42743 -0.41559,0.3696 -0.91666,-0.20037 z m -147.40715,-2.52545 c -0.17141,-0.42182 -0.0271,-1.35685 0.32094,-2.07785 0.55752,-1.15512 0.50389,-1.39167 -0.45122,-1.99035 -1.34171,-0.84099 -1.41255,-2.81149 -0.12449,-3.46225 1.05073,-0.53087 2.15768,0.13773 2.15768,1.30334 0,0.36133 0.80006,1.77845 1.77791,3.1492 0.97786,1.37076 1.65418,2.7966 1.50299,3.16858 -0.40267,0.99061 -4.77539,0.91415 -5.18383,-0.0907 z m -4.50455,-0.54089 c -1.01304,-0.95635 0.57432,-3.59664 2.16229,-3.59664 0.8913,0 0.74259,2.25562 -0.20788,3.15288 -0.88422,0.83471 -1.41306,0.95479 -1.95441,0.44376 z m -33.33627,-10.04835 c -1.79916,-0.92898 -2.36315,-1.97996 -2.05208,-3.82389 0.57224,-3.3921 0.78095,-3.94742 1.48349,-3.94742 1.12518,0 1.26275,-2.77108 0.24419,-4.91878 -0.97917,-2.06466 -2.94413,-3.18263 -4.67973,-2.66261 -1.30769,0.39182 -3.04853,-0.17665 -3.04853,-0.99553 0,-0.36502 0.70135,-0.80909 1.55858,-0.98682 0.85722,-0.17776 1.55859,-0.53986 1.55859,-0.8047 0,-0.81354 -4.68357,0.11345 -8.28895,1.64046 -2.39569,1.0147 -3.74281,1.32331 -4.68088,1.07231 -0.72445,-0.19381 -1.52546,-0.30584 -1.78007,-0.24889 -1.04498,0.23365 -4.00866,-1.51488 -3.85377,-2.27369 0.19616,-0.96133 2.71944,-1.66513 4.16271,-1.16109 0.68788,0.24021 1.80519,0.0149 3.20281,-0.64432 2.01028,-0.94895 3.03626,-1.01323 16.17364,-1.01323 12.45873,0 14.17548,-0.0951 15.35319,-0.85115 1.72787,-1.10914 4.41831,-1.61391 4.87599,-0.91482 0.1944,0.29692 0.88818,0.53986 1.54176,0.53986 0.65359,0 1.92394,0.34642 2.82302,0.76983 0.94237,0.4438 2.09933,0.63062 2.73186,0.4411 1.15308,-0.34548 5.50167,0.59643 5.95576,1.29003 0.1457,0.22254 -0.50324,0.59236 -1.44208,0.82181 -0.96162,0.23503 -1.96656,0.90796 -2.30145,1.54112 -0.32697,0.61816 -1.57189,2.06407 -2.76649,3.21316 -1.28667,1.23763 -2.10317,2.44981 -2.00314,2.9738 0.23847,1.2493 -2.50852,2.65366 -5.88546,3.0089 -1.52771,0.16071 -3.82969,0.81321 -5.11551,1.44999 -1.28584,0.63681 -3.3131,1.38408 -4.50504,1.66065 -1.63355,0.37902 -2.70085,1.10454 -4.33447,2.94652 -2.21046,2.49239 -3.08882,2.82702 -4.92794,1.8774 z m -20.52128,-2.37637 c -1.44964,-1.3685 -1.29772,-2.30078 0.51951,-3.18791 1.84862,-0.90245 1.85359,-0.92882 0.51068,-2.7092 -0.9972,-1.32207 -1.21544,-1.38152 -4.51079,-1.22896 -3.86347,0.17888 -4.83184,-0.0227 -4.83184,-1.00621 0,-0.93284 2.81513,-2.2561 3.47481,-1.63334 0.33658,0.31776 0.99858,0.30899 1.9308,-0.0256 2.01849,-0.72447 5.2337,-0.10793 6.60089,1.26608 0.63954,0.64262 1.43119,1.16843 1.75922,1.16843 0.63357,0 3.37865,3.66645 3.37865,4.51263 0,0.30697 -0.70427,0.3763 -1.81834,0.17907 -1.70492,-0.30194 -1.81834,-0.24131 -1.81834,0.97223 0,0.88178 -0.33113,1.37601 -1.03906,1.55078 -0.57148,0.14106 -1.03904,0.45145 -1.03904,0.68975 0,0.8043 -2.07036,0.44055 -3.11715,-0.54766 z m 45.32865,-0.61105 c -0.64291,-0.28585 -1.16893,-0.70671 -1.16893,-0.93523 0,-0.22854 -0.0585,-0.54566 -0.12978,-0.70476 -0.0715,-0.15905 1.36954,-0.32462 3.20215,-0.36785 2.16718,-0.0512 3.40417,0.1242 3.53837,0.50129 0.42389,1.19118 -3.62801,2.31296 -5.44171,1.50655 z m -77.29327,-5.37652 c -0.16376,-0.40281 -0.25839,-0.93082 -0.21034,-1.17337 0.28638,-1.44564 -0.0885,-1.67078 -2.24367,-1.34745 -1.92996,0.28957 -2.12659,0.23807 -1.56157,-0.4089 0.35553,-0.40708 1.59159,-1.14253 2.74681,-1.6343 2.07235,-0.8822 2.13841,-0.87925 4.9481,0.22012 1.83282,0.71715 3.5703,1.04919 4.87529,0.93171 1.88918,-0.16998 2.04851,-0.0838 2.33433,1.26559 0.34409,1.62403 -0.27514,2.22761 -2.30302,2.24477 -0.71436,0.005 -2.87143,0.15125 -4.79352,0.32259 -2.83367,0.25266 -3.55103,0.17314 -3.79241,-0.42076 z m 16.08402,-2.89401 c -0.37747,-0.57659 0.62588,-1.39763 1.7235,-1.41033 0.99256,-0.0112 0.77295,0.87647 -0.35811,1.44791 -0.71174,0.3596 -1.11258,0.34857 -1.36539,-0.0376 z m 122.97924,0.10848 c -1.34479,-0.80448 1.11736,-3.63244 3.69032,-4.23865 1.85555,-0.43717 1.80651,0.0234 -0.16965,1.59315 -1.05059,0.83454 -1.51238,1.58005 -1.34745,2.17537 0.27107,0.97857 -0.89985,1.23187 -2.17325,0.47013 z M 237.04694,161.634 c 0.37503,-0.14162 0.82312,-0.12419 0.99575,0.0387 0.1726,0.16294 -0.13411,0.27889 -0.68188,0.25761 -0.60522,-0.0235 -0.72833,-0.13977 -0.31387,-0.29633 z m -14.44911,-1.38128 c -0.47795,-0.54367 -0.51925,-0.93258 -0.13725,-1.29315 0.85431,-0.80649 2.47494,-0.28103 2.47494,0.80245 0,1.2184 -1.43339,1.51928 -2.33765,0.4907 z m 4.38778,0.20224 c -0.53539,-0.81778 0.66873,-1.75556 1.38544,-1.07898 0.59949,0.56593 0.22427,1.61217 -0.57818,1.61217 -0.25201,0 -0.61528,-0.23993 -0.80726,-0.53319 z m 17.43211,0.0901 c -2.67464,-0.27379 -2.8683,-0.3826 -3.02789,-1.70098 -0.23985,-1.98143 0.76433,-2.79419 1.42513,-1.15346 0.67812,1.68377 2.31844,2.51459 3.64321,1.84527 1.15684,-0.58446 2.77124,-0.15923 2.4843,0.65447 -0.23899,0.67772 -0.87916,0.7279 -4.52475,0.3547 z m 177.80785,0.11845 c -1.10643,-0.42147 -0.71513,-1.14653 0.61876,-1.14653 1.5165,0 2.17673,0.75722 1.02423,1.17472 -0.45034,0.16312 -0.85811,0.2792 -0.90618,0.2579 -0.0481,-0.0213 -0.37961,-0.14996 -0.73681,-0.28609 z m -187.85204,-0.98306 c -0.77641,-0.73295 -0.24723,-1.14437 1.47199,-1.14437 1.8817,0 2.43561,0.65234 0.99657,1.17365 -1.07446,0.38923 -2.03733,0.37781 -2.46856,-0.0293 z m 89.01217,-1.88005 c -0.35571,-0.40462 -0.96881,-0.73567 -1.36242,-0.73567 -0.39362,0 -0.71568,-0.33104 -0.71568,-0.73568 0,-0.49484 0.55272,-0.74871 1.68847,-0.77552 0.92865,-0.0219 2.27292,-0.13494 2.98727,-0.25104 2.74088,-0.44569 5.17956,-0.42475 5.31442,0.0456 0.0774,0.26974 -0.59034,0.55756 -1.48372,0.63961 -0.89339,0.0821 -2.16152,0.68898 -2.81808,1.34875 -1.36023,1.36686 -2.66861,1.53497 -3.61026,0.46387 z m -85.72184,-1.22611 c 0,-0.26975 0.23381,-0.49046 0.51954,-0.49046 0.28574,0 0.51952,0.22071 0.51952,0.49046 0,0.26975 -0.23378,0.49044 -0.51952,0.49044 -0.28573,0 -0.51954,-0.22069 -0.51954,-0.49044 z m 141.83068,-0.49046 c 0,-0.26975 0.33689,-0.49045 0.74862,-0.49045 0.41176,0 0.89312,0.2207 1.06973,0.49045 0.17652,0.26975 -0.16023,0.49046 -0.74863,0.49046 -0.58834,0 -1.06972,-0.22071 -1.06972,-0.49046 z"
         id="path2978"
         inkscape:connector-curvature="0" />
      <g
         id="g3962"
         transform="matrix(0.78653936,0,0,0.78653936,254.01118,174.41859)">
        <g
           id="g3952"
           transform="matrix(0.47876,0,0,0.47876,44.489,16.39)">
          <g
             id="g3950"
             transform="translate(19.392,-0.79691)"
             style="stroke-width:0.26458001">
            <path
               id="path3942"
               d="m 80.679,185.87 c -7.864,-0.91 -15.8,-3.07 -22.959,-6.23 -1.5941,-0.70469 -3.1824,-1.4673 -3.5295,-1.6948 l -0.63109,-0.41351 v -16.795 c 0,-11.232 0.08933,-16.795 0.26968,-16.795 0.14833,0 1.2497,0.84727 2.4474,1.8828 5.8243,5.0356 13.657,9.1083 21.016,10.928 4.7709,1.1795 6.3091,1.3448 12.515,1.3448 6.206,0 7.7442,-0.16528 12.515,-1.3448 7.8161,-1.9323 16.076,-6.3496 21.956,-11.741 0.84179,-0.77192 1.6113,-1.3227 1.71,-1.2241 0.0987,0.0987 0.14775,7.7046 0.10902,16.902 -0.0676,16.054 -0.0905,16.74 -0.57303,17.152 -0.27644,0.23607 -1.7881,0.99516 -3.3593,1.6869 -7.6734,3.3782 -15.273,5.4345 -23.494,6.3566 -4.2021,0.47133 -13.902,0.46619 -17.992,-0.01 z M 19.035,142.79 C 17.306,140.15 13.668,130.1 12.46,124.62 9.2139,109.91 10.05,95.009 14.913,80.916 c 1.1476,-3.3258 3.131,-8.0104 3.983,-9.4071 l 0.52451,-0.8599 h 16.805 c 11.15,0 16.805,0.09002 16.805,0.26752 0,0.14714 -0.89932,1.308 -1.9985,2.5797 -6.2973,7.2857 -10.382,16.174 -11.927,25.955 -0.5948,3.7655 -0.59457,11.335 5.29e-4,15.118 1.5347,9.7571 5.6991,18.775 12.068,26.133 1.0212,1.1798 1.8567,2.2714 1.8567,2.4257 -6.9e-5,0.19484 -5.1345,0.28063 -16.795,0.28063 h -16.796 z m 117.8,0.42068 c -5.6389,-0.0399 -10.253,-0.13452 -10.253,-0.21038 0,-0.0759 1.0029,-1.3304 2.2287,-2.7879 11.966,-14.228 15.37,-32.526 9.3712,-50.381 -0.81846,-2.4363 -3.669,-8.2086 -5.2919,-10.716 -1.5769,-2.4361 -4.1792,-5.7523 -5.4889,-6.9948 -0.45053,-0.42741 -0.81915,-0.9343 -0.81915,-1.1264 0,-0.28645 3.0594,-0.33706 16.999,-0.28123 l 16.999,0.06809 0.84361,1.7198 c 1.1748,2.3948 3.3198,7.8496 4.2659,10.848 3.5424,11.226 4.446,25.182 2.3984,37.042 -1.1645,6.745 -3.0746,13.016 -5.8426,19.182 -0.71856,1.6007 -1.495,3.1188 -1.7253,3.3734 -0.38039,0.4205 -1.0165,0.45724 -6.9263,0.40008 -3.5791,-0.0346 -11.121,-0.0956 -16.76,-0.1354 z m -83.332,-89.428 c -0.04444,-9.1314 -0.04353,-16.738 0.0021,-16.903 0.10311,-0.37402 4.4803,-2.4234 8.5161,-3.9872 17.134,-6.6392 35.339,-7.0707 52.848,-1.2527 4.9155,1.6334 10.842,4.2143 11.131,4.847 0.10744,0.23573 0.15348,7.8998 0.1023,17.031 -0.073,13.033 -0.16398,16.603 -0.42293,16.603 -0.18143,0 -0.61851,-0.31122 -0.9713,-0.69161 -1.158,-1.2486 -4.2974,-3.7003 -7.0339,-5.4931 -13.681,-8.9629 -31.393,-10.719 -46.762,-4.6355 -5.1868,2.053 -10.566,5.3383 -14.669,8.9596 -1.3244,1.1689 -2.4644,2.1252 -2.5333,2.1252 -0.06887,0 -0.16157,-7.4712 -0.20601,-16.603 z"
               inkscape:connector-curvature="0"
               style="fill:#eda519" />
            <path
               id="path3944"
               d="M 19.035,142.79 C 17.306,140.15 13.668,130.1 12.46,124.62 9.2139,109.91 10.05,95.009 14.913,80.916 c 1.1476,-3.3258 3.131,-8.0104 3.983,-9.4071 l 0.52451,-0.8599 h 16.805 c 11.15,0 16.805,0.09002 16.805,0.26752 0,0.14714 -0.89932,1.308 -1.9985,2.5797 -6.2973,7.2857 -10.382,16.174 -11.927,25.955 -0.5948,3.7655 -0.59457,11.335 5.29e-4,15.118 1.5347,9.7571 5.6991,18.775 12.068,26.133 1.0212,1.1798 1.8567,2.2714 1.8567,2.4257 -6.9e-5,0.19484 -5.1345,0.28063 -16.795,0.28063 h -16.796 z m 117.8,0.42068 c -5.6389,-0.0399 -10.253,-0.13452 -10.253,-0.21038 0,-0.0759 1.0029,-1.3304 2.2287,-2.7879 11.966,-14.228 15.37,-32.526 9.3712,-50.381 -0.81846,-2.4363 -3.669,-8.2086 -5.2919,-10.716 -1.5769,-2.4361 -4.1792,-5.7523 -5.4889,-6.9948 -0.45053,-0.42741 -0.81915,-0.9343 -0.81915,-1.1264 0,-0.28645 3.0594,-0.33706 16.999,-0.28123 l 16.999,0.06809 0.84361,1.7198 c 1.1748,2.3948 3.3198,7.8496 4.2659,10.848 3.5424,11.226 4.446,25.182 2.3984,37.042 -1.1645,6.745 -3.0746,13.016 -5.8426,19.182 -0.71856,1.6007 -1.495,3.1188 -1.7253,3.3734 -0.38039,0.4205 -1.0165,0.45724 -6.9263,0.40008 -3.5791,-0.0346 -11.121,-0.0956 -16.76,-0.1354 z m -83.071,-89.557 c -0.04271,-8.9149 0.0085,-16.403 0.11372,-16.641 0.25447,-0.575 7.2494,-3.6382 11.644,-5.0992 18.796,-6.2483 38.215,-5.2912 56.604,2.7898 1.9894,0.87422 3.6574,1.7297 3.7066,1.9011 0.0493,0.17136 0.0499,7.7282 0.001,16.793 l -0.0882,16.481 -1.2372,-1.0773 c -4.0688,-3.5431 -7.8399,-6.0599 -12.35,-8.242 -16.193,-7.8354 -35.463,-6.6035 -50.403,3.222 -2.496,1.6415 -5.9011,4.2896 -6.6021,5.1342 -0.20119,0.24242 -0.57878,0.55474 -0.83908,0.69405 -0.45186,0.24183 -0.47679,-0.47998 -0.55093,-15.956 z"
               inkscape:connector-curvature="0"
               style="fill:#f16420" />
            <path
               id="path3946"
               d="M 19.035,142.79 C 17.306,140.15 13.668,130.1 12.46,124.62 9.2139,109.91 10.05,95.009 14.913,80.916 c 1.1476,-3.3258 3.131,-8.0104 3.983,-9.4071 l 0.52451,-0.8599 h 16.805 c 11.15,0 16.805,0.09002 16.805,0.26752 0,0.14714 -0.89932,1.308 -1.9985,2.5797 -6.2973,7.2857 -10.382,16.174 -11.927,25.955 -0.5948,3.7655 -0.59457,11.335 5.29e-4,15.118 1.5347,9.7571 5.6991,18.775 12.068,26.133 1.0212,1.1798 1.8567,2.2714 1.8567,2.4257 -6.9e-5,0.19484 -5.1345,0.28063 -16.795,0.28063 h -16.796 z m 117.8,0.42068 c -5.6389,-0.0399 -10.253,-0.13452 -10.253,-0.21038 0,-0.0759 1.0029,-1.3304 2.2287,-2.7879 11.966,-14.228 15.37,-32.526 9.3712,-50.381 -0.81846,-2.4363 -3.669,-8.2086 -5.2919,-10.716 -1.5769,-2.4361 -4.1792,-5.7523 -5.4889,-6.9948 -0.45053,-0.42741 -0.81915,-0.9343 -0.81915,-1.1264 0,-0.28645 3.0594,-0.33706 16.999,-0.28123 l 16.999,0.06809 0.84361,1.7198 c 1.1748,2.3948 3.3198,7.8496 4.2659,10.848 3.5424,11.226 4.446,25.182 2.3984,37.042 -1.1645,6.745 -3.0746,13.016 -5.8426,19.182 -0.71856,1.6007 -1.495,3.1188 -1.7253,3.3734 -0.38039,0.4205 -1.0165,0.45724 -6.9263,0.40008 -3.5791,-0.0346 -11.121,-0.0956 -16.76,-0.1354 z"
               inkscape:connector-curvature="0"
               style="fill:#5a56a5" />
            <path
               id="path3948"
               d="m 127.04,142.98 c -0.0903,-0.0903 0.79757,-1.3016 1.9731,-2.6917 4.8459,-5.7306 8.9176,-13.506 10.652,-20.341 4.1709,-16.437 0.20746,-33.673 -10.663,-46.37 -1.1729,-1.37 -2.071,-2.5904 -1.9958,-2.712 0.0751,-0.12159 7.4887,-0.22108 16.475,-0.22108 12.66,0 16.437,0.07445 16.776,0.33073 0.4893,0.36925 1.8521,3.2528 3.3725,7.1362 2.5523,6.5188 4.1715,13.222 5.0251,20.805 0.41764,3.7098 0.34464,12.857 -0.13554,16.984 -1.0218,8.7807 -3.683,18.051 -7.2122,25.123 l -0.99023,1.9844 -16.557,0.0681 c -9.1061,0.0375 -16.63,-0.006 -16.721,-0.0961 z"
               inkscape:connector-curvature="0"
               style="fill:#039283" />
          </g>
        </g>
        <text
           id="text3956"
           x="16.975183"
           y="91.662239"
           line-height="1.25"
           font-size="62.877px"
           xml:space="preserve"
           style="font-size:62.8769989px;line-height:1.25;font-family:sans-serif;letter-spacing:0px;word-spacing:0px;fill:#000000;filter:url(#filter3087-4)"><tspan
             id="tspan3954"
             x="16.975183"
             y="91.662239"
             style="font-family:'Open Sans';stroke-width:1.57190001">4</tspan></text>
        <text
           id="text3960"
           x="140.53532"
           y="91.662239"
           line-height="1.25"
           font-size="62.877px"
           xml:space="preserve"
           style="font-size:62.8769989px;line-height:1.25;font-family:sans-serif;letter-spacing:0px;word-spacing:0px;fill:#000000;filter:url(#filter3087-4)"><tspan
             id="tspan3958"
             x="140.53532"
             y="91.662239"
             style="font-family:'Open Sans';stroke-width:1.57190001">4</tspan></text>
      </g>
      <text
         xml:space="preserve"
         style="font-style:normal;font-weight:normal;font-size:10.58333302px;line-height:1.25;font-family:sans-serif;letter-spacing:0px;word-spacing:0px;fill:#000000;fill-opacity:1;stroke:none;stroke-width:0.26458332;filter:url(#filter1151)"
         x="274.06729"
         y="282.79721"
         id="text3987"
         transform="matrix(0.78653936,0,0,0.78653936,70.467228,51.341842)"><tspan
           sodipodi:role="line"
           id="tspan3985"
           x="274.06729"
           y="282.79721"
           style="font-style:normal;font-variant:normal;font-weight:500;font-stretch:normal;font-size:10.58333302px;font-family:Roboto;-inkscape-font-specification:'Roboto Medium';stroke-width:0.26458332">Oops... Page Not Found</tspan></text>
      <text
         id="text851"
         y="282.51352"
         x="261.02289"
         style="font-style:normal;font-weight:normal;font-size:8.32420826px;line-height:1.25;font-family:sans-serif;letter-spacing:0px;word-spacing:0px;fill:#000000;fill-opacity:1;stroke:none;stroke-width:0.20810519"
         xml:space="preserve"><tspan
           style="font-style:normal;font-variant:normal;font-weight:normal;font-stretch:normal;font-size:5.32471848px;font-family:Roboto;-inkscape-font-specification:Roboto;stroke-width:0.20810519"
           y="282.51352"
           x="261.02289"
           id="tspan849"
           sodipodi:role="line">We are sorry, but the page you are looking for doesn't exist.</tspan></text>
    </g>
  </g>
</svg>
